<svg width="19" height="21" viewBox="0 0 19 21" fill="none" xmlns="http://www.w3.org/2000/svg">
<path d="M2.82857 8.08926V13.5174C2.82857 14.2393 2.23437 14.8158 1.47812 14.8158C0.726785 14.8158 0 14.2346 0 13.5174V8.08926C0 7.38144 0.726785 6.80019 1.47812 6.80019C2.21964 6.80019 2.82857 7.38144 2.82857 8.08926ZM3.35893 15.4486C3.35893 16.2174 4.00714 16.8361 4.8125 16.8361H5.78973L5.80446 19.7002C5.80446 21.4299 8.51518 21.4158 8.51518 19.7002V16.8361H10.342V19.7002C10.342 21.4205 13.0674 21.4252 13.0674 19.7002V16.8361H14.0594C14.8549 16.8361 15.5031 16.2174 15.5031 15.4486V7.03926H3.35893V15.4486ZM15.5375 6.58457H3.30491C3.30491 4.57832 4.56205 2.83457 6.42812 1.92519L5.49018 0.270506C5.35268 0.0408184 5.70134 -0.104494 5.81919 0.0923809L6.77187 1.76113C8.48571 1.03457 10.4549 1.07207 12.0902 1.76113L13.0379 0.0970684C13.1607 -0.104494 13.5045 0.0455058 13.367 0.275193L12.429 1.92519C14.2804 2.83457 15.5375 4.57832 15.5375 6.58457ZM7.15491 3.98301C7.15491 3.71582 6.92902 3.49082 6.63928 3.49082C6.35937 3.49082 6.13839 3.71582 6.13839 3.98301C6.13839 4.25019 6.36428 4.47519 6.63928 4.47519C6.92902 4.47519 7.15491 4.25019 7.15491 3.98301ZM12.7237 3.98301C12.7237 3.71582 12.4978 3.49082 12.2228 3.49082C11.933 3.49082 11.7071 3.71582 11.7071 3.98301C11.7071 4.25019 11.933 4.47519 12.2228 4.47519C12.4978 4.47519 12.7237 4.25019 12.7237 3.98301ZM17.379 6.80019C16.6375 6.80019 16.0286 7.36738 16.0286 8.08926V13.5174C16.0286 14.2393 16.6375 14.8158 17.379 14.8158C18.1353 14.8158 18.8571 14.2346 18.8571 13.5174V8.08926C18.8571 7.36738 18.1304 6.80019 17.379 6.80019Z" fill="white"/>
</svg>
