<svg width="18" height="21" viewBox="0 0 18 21" fill="none" xmlns="http://www.w3.org/2000/svg">
<path d="M15.0494 11.0973C15.0399 9.37671 15.8337 8.07803 17.4405 7.12161C16.5414 5.86044 15.1833 5.16656 13.39 5.0306C11.6923 4.89933 9.83688 6.00109 9.15781 6.00109C8.44049 6.00109 6.79543 5.07749 5.50425 5.07749C2.83581 5.11968 0 7.1638 0 11.3224C0 12.5507 0.229543 13.8197 0.688629 15.1293C1.30074 16.8499 3.5101 21.0695 5.81509 20.9991C7.02019 20.971 7.87141 20.1599 9.43996 20.1599C10.9607 20.1599 11.7497 20.9991 13.0935 20.9991C15.4176 20.9663 17.4166 17.1312 18 15.4059C14.882 13.9666 15.0494 11.1864 15.0494 11.0973ZM12.3427 3.39906C13.6482 1.88003 13.5287 0.496965 13.4904 0C12.3379 0.0656369 11.0037 0.76889 10.2434 1.63624C9.40648 2.56453 8.91392 3.71318 9.01913 5.00716C10.2673 5.10093 11.4054 4.47269 12.3427 3.39906Z" fill="white"/>
</svg>
