<svg width="14" height="13" viewBox="0 0 14 13" fill="none" xmlns="http://www.w3.org/2000/svg">
<path d="M12.5 0H1.5C1.10218 0 0.720644 0.146747 0.43934 0.407958C0.158035 0.66917 0 1.02345 0 1.39286L0 11.6071C0 11.9766 0.158035 12.3308 0.43934 12.592C0.720644 12.8533 1.10218 13 1.5 13H5.78906V8.58029H3.82031V6.5H5.78906V4.91446C5.78906 3.111 6.94531 2.11482 8.71625 2.11482C9.56437 2.11482 10.4513 2.25527 10.4513 2.25527V4.02536H9.47406C8.51125 4.02536 8.21094 4.58018 8.21094 5.14922V6.5H10.3603L10.0166 8.58029H8.21094V13H12.5C12.8978 13 13.2794 12.8533 13.5607 12.592C13.842 12.3308 14 11.9766 14 11.6071V1.39286C14 1.02345 13.842 0.66917 13.5607 0.407958C13.2794 0.146747 12.8978 0 12.5 0Z" fill="#9857B7"/>
</svg>
