<svg width="38" height="42" viewBox="0 0 38 42" fill="none" xmlns="http://www.w3.org/2000/svg">
<path d="M37.3067 3.19981L35.1075 0.769097C34.887 0.525267 34.6251 0.331847 34.3369 0.199884C34.0487 0.067921 33.7398 0 33.4279 0C33.1159 0 32.807 0.067921 32.5188 0.199884C32.2306 0.331847 31.9688 0.525267 31.7482 0.769097L28.3132 4.5698C28.0252 4.88718 27.8084 5.27459 27.6801 5.70107L26.7775 8.69619L21.1173 14.9522C20.2147 14.2336 19.2246 13.661 18.141 13.3821C15.6582 12.7438 13.168 13.3099 11.4698 15.1868C10.7771 15.9557 10.2618 16.8974 9.96756 17.9326C9.52222 19.4551 8.24485 20.6143 6.83907 20.7595C5.07999 20.9457 3.44486 21.6988 2.19198 23.0926C-1.19554 26.826 -0.586171 33.5529 3.5317 38.1018C7.64958 42.6507 13.7314 43.3152 17.113 39.5842C18.3748 38.1994 19.0546 36.393 19.2246 34.4398C19.3552 32.8934 20.404 31.4758 21.7801 30.9828C22.7168 30.657 23.5691 30.0873 24.2651 29.3216C25.9625 27.4446 26.4725 24.698 25.898 21.9589C25.6464 20.7579 25.1283 19.6619 24.4759 18.661L30.1346 12.4067L32.8423 11.4091C33.2281 11.2672 33.5786 11.0276 33.8658 10.7093L37.3045 6.90945C37.7494 6.41759 37.9996 5.75067 38 5.05514C38.0004 4.35961 37.7511 3.69233 37.3067 3.19981ZM15.4385 28.8769C14.7339 28.8769 14.0451 28.646 13.4592 28.2133C12.8733 27.7806 12.4167 27.1656 12.147 26.4461C11.8774 25.7266 11.8068 24.9348 11.9443 24.171C12.0817 23.4072 12.4211 22.7055 12.9193 22.1548C13.4176 21.6041 14.0524 21.2291 14.7435 21.0772C15.4346 20.9252 16.1509 21.0032 16.8019 21.3013C17.4529 21.5993 18.0093 22.104 18.4008 22.7515C18.7923 23.3991 19.0012 24.1604 19.0012 24.9392C19.0012 25.9836 18.6258 26.9851 17.9577 27.7236C17.2896 28.4621 16.3834 28.8769 15.4385 28.8769Z" fill="#9857B7"/>
</svg>
