<svg width="42" height="46" viewBox="0 0 42 46" fill="none" xmlns="http://www.w3.org/2000/svg">
<path d="M42 23.7188V22.2812C42 21.487 41.5301 20.8438 40.95 20.8438H22.575V17.25H27.3C28.4596 17.25 29.4 15.9625 29.4 14.375V2.875C29.4 1.28746 28.4596 0 27.3 0H14.7C13.5404 0 12.6 1.28746 12.6 2.875V14.375C12.6 15.9625 13.5404 17.25 14.7 17.25H19.425V20.8438H1.05C0.469875 20.8438 0 21.487 0 22.2812V23.7188C0 24.513 0.469875 25.1562 1.05 25.1562H7.875V28.75H4.2C3.04041 28.75 2.1 30.0375 2.1 31.625V43.125C2.1 44.7125 3.04041 46 4.2 46H14.7C15.8596 46 16.8 44.7125 16.8 43.125V31.625C16.8 30.0375 15.8596 28.75 14.7 28.75H11.025V25.1562H30.975V28.75H27.3C26.1404 28.75 25.2 30.0375 25.2 31.625V43.125C25.2 44.7125 26.1404 46 27.3 46H37.8C38.9596 46 39.9 44.7125 39.9 43.125V31.625C39.9 30.0375 38.9596 28.75 37.8 28.75H34.125V25.1562H40.95C41.5301 25.1562 42 24.513 42 23.7188ZM16.8 11.5V5.75H25.2V11.5H16.8ZM12.6 40.25H6.3V34.5H12.6V40.25ZM35.7 40.25H29.4V34.5H35.7V40.25Z" fill="#9857B7"/>
</svg>
