<svg width="44" height="46" viewBox="0 0 44 46" fill="none" xmlns="http://www.w3.org/2000/svg">
<path d="M22 0C9.84677 0 0 10.2944 0 23C0 35.7056 9.84677 46 22 46C34.1532 46 44 35.7056 44 23C44 10.2944 34.1532 0 22 0ZM29.0968 15.5806C30.6669 15.5806 31.9355 16.9069 31.9355 18.5484C31.9355 20.1899 30.6669 21.5161 29.0968 21.5161C27.5266 21.5161 26.2581 20.1899 26.2581 18.5484C26.2581 16.9069 27.5266 15.5806 29.0968 15.5806ZM14.9032 15.5806C16.4734 15.5806 17.7419 16.9069 17.7419 18.5484C17.7419 20.1899 16.4734 21.5161 14.9032 21.5161C13.3331 21.5161 12.0645 20.1899 12.0645 18.5484C12.0645 16.9069 13.3331 15.5806 14.9032 15.5806ZM32.1839 31.3653C29.6556 34.5371 25.9476 36.3548 22 36.3548C18.0524 36.3548 14.3444 34.5371 11.8161 31.3653C10.6097 29.8536 12.7919 27.9617 13.9984 29.4641C15.9855 31.9589 18.8952 33.3778 22 33.3778C25.1048 33.3778 28.0145 31.9496 30.0016 29.4641C31.1903 27.9617 33.3815 29.8536 32.1839 31.3653Z" fill="#9857B7"/>
</svg>
