<svg width="14" height="13" viewBox="0 0 14 13" fill="none" xmlns="http://www.w3.org/2000/svg">
<path d="M12.5 0H1.5C0.671875 0 0 0.623884 0 1.39286V11.6071C0 12.3761 0.671875 13 1.5 13H12.5C13.3281 13 14 12.3761 14 11.6071V1.39286C14 0.623884 13.3281 0 12.5 0ZM10.9719 4.60804C10.9781 4.68929 10.9781 4.77344 10.9781 4.85469C10.9781 7.37054 8.91562 10.2694 5.14687 10.2694C3.98438 10.2694 2.90625 9.95603 2 9.41629C2.16563 9.43371 2.325 9.43951 2.49375 9.43951C3.45312 9.43951 4.33437 9.13772 5.0375 8.62701C4.1375 8.6096 3.38125 8.06116 3.12188 7.3067C3.4375 7.35022 3.72187 7.35022 4.04688 7.27187C3.10938 7.09487 2.40625 6.32879 2.40625 5.40312V5.37991C2.67812 5.5221 2.99688 5.60915 3.33125 5.62076C3.05013 5.44713 2.81968 5.21157 2.66046 4.93511C2.50124 4.65865 2.4182 4.34989 2.41875 4.03638C2.41875 3.68237 2.51875 3.35737 2.69688 3.07589C3.70625 4.2308 5.22188 4.98527 6.92188 5.06652C6.63125 3.77522 7.67188 2.72768 8.92188 2.72768C9.5125 2.72768 10.0437 2.95692 10.4187 3.32835C10.8812 3.2471 11.325 3.0875 11.7188 2.86987C11.5656 3.31094 11.2438 3.68237 10.8188 3.91741C11.2313 3.87679 11.6313 3.76942 12 3.62143C11.7219 4.00156 11.3719 4.33817 10.9719 4.60804Z" fill="#9857B7"/>
</svg>
